<mxfile host="app.diagrams.net" modified="2023-04-30T22:54:00.167Z" agent="Mozilla/5.0 (Windows NT 10.0; Win64; x64) AppleWebKit/537.36 (KHTML, like Gecko) Chrome/111.0.0.0 Safari/537.36 OPR/97.0.0.0" version="21.2.2" etag="QFc6VTeleSRHyKJ9RmOt" type="github">
  <diagram name="PÃ¡gina-1" id="CapEFyp5fQ9wZnqrD0AO">
    <mxGraphModel>
      <root>
        <mxCell id="0" />
        <mxCell id="1" parent="0" />
      </root>
    </mxGraphModel>
  </diagram>
</mxfile>
